# xmcd
#
# Track frame offsets:
#	150
#	17072
#	33479
#	49067
#	66844
#	80505
#	94653
#	108711
#	125174
#	144094
#	162390
#	177321
#	195163
#	210838
#
# Disc length: 2990 seconds
#
# Revision: 1
# Processed by: cddbd v1.5.2PL0 Copyright (c) Steve Scherf et al.
# Submitted via: audiograbber 1.83.01
#
DISCID=b90bac0e
DTITLE=Various Artist - Hot Hits Country Volume 109
DYEAR=1900
DGENRE=Country
TTITLE0=Brooks and Dunn - Only In America
TTITLE1=Travis Tritt - Love Of A Woman
TTITLE2=Phil Vassar - Six-Pack Summer
TTITLE3=Billy Ray Cyrus - Southern Rain
TTITLE4=Billy Gilman - She's My Girl
TTITLE5=Dwight Yoakam - I Want You To Want Me
TTITLE6=Terri Clark -  Getting There
TTITLE7=Jessica Andrews - Helplessly, Hopelessly
TTITLE8=Mark Wills - Loving Every Minute
TTITLE9=Warren Bros - Where Does It Hurt
TTITLE10=Andy Griggs - How Cool Is That
TTITLE11=Patty Loveless - Strong Heart
TTITLE12=Clay Walker - If You Ever Feel Like Lovin' Me Again
TTITLE13=Mark McGuinn - That's A Plan
EXTD=
EXTT0=
EXTT1=
EXTT2=
EXTT3=
EXTT4=
EXTT5=
EXTT6=
EXTT7=
EXTT8=
EXTT9=
EXTT10=
EXTT11=
EXTT12=
EXTT13=
PLAYORDER=
